name Walk9.mot
datacolumns 19
datarows 15
range 1.46000000 1.53000000
endheader

                time	   L_ground_force_vx	   L_ground_force_vy	   L_ground_force_vz	   L_ground_force_px	   L_ground_force_py	   L_ground_force_pz	   R_ground_force_vx	   R_ground_force_vy	   R_ground_force_vz	   R_ground_force_px	   R_ground_force_py	   R_ground_force_pz	   L_ground_torque_x	   L_ground_torque_y	   L_ground_torque_z	   R_ground_torque_x	   R_ground_torque_y	   R_ground_torque_z	
          1.46000000	         21.57325597	        559.12324013	         41.43447621	         -0.31372334	          0.00000000	         -0.09925220	          0.00000000	          0.00000000	         -0.00000000	          0.00000000	          0.00000000	          0.00000000	          0.00000000	         -0.58848889	          0.00000000	          0.00000000	          0.00000000	          0.00000000	
          1.46500000	         24.13673579	        567.25619954	         41.60611454	         -0.31315004	          0.00000000	         -0.09924080	          0.00000000	          0.00000000	          0.00000000	          0.00000000	          0.00000000	          0.00000000	          0.00000000	         -0.60710451	          0.00000000	          0.00000000	          0.00000000	          0.00000000	
          1.47000000	         26.90314298	        575.79076308	         41.94136210	         -0.31255968	          0.00000000	         -0.09914424	          0.00000000	          0.00000000	          0.00000000	         -0.00000000	          0.00000000	         -0.00000000	          0.00000000	         -0.61356779	          0.00000000	          0.00000000	         -0.00000000	          0.00000000	
          1.47500000	         29.83080837	        584.45875828	         42.47616394	         -0.31194220	          0.00000000	         -0.09883507	         -0.00000000	         -0.00000000	          0.00000000	         -0.00000000	          0.00000000	         -0.00000000	          0.00000000	         -0.64281107	          0.00000000	          0.00000000	         -0.00000000	          0.00000000	
          1.48000000	         32.91571787	        593.35261095	         43.20070507	         -0.31133622	          0.00000000	         -0.09846399	         -0.00000000	         -0.00000000	         -0.00000000	         -0.00000000	          0.00000000	         -0.00000000	          0.00000000	         -0.67623138	          0.00000000	          0.00000000	          0.00000000	          0.00000000	
          1.48500000	         36.08378239	        602.51446038	         44.04813572	         -0.31083022	          0.00000000	         -0.09826821	         -0.00000000	         -0.00000000	         -0.00000000	          0.00000000	          0.00000000	          0.00000000	          0.00000000	         -0.68966259	          0.00000000	          0.00000000	          0.00000000	          0.00000000	
          1.49000000	         39.38888435	        611.95834288	         45.06767913	         -0.31039587	          0.00000000	         -0.09829748	          0.00000000	          0.00000000	         -0.00000000	          0.00000000	          0.00000000	          0.00000000	          0.00000000	         -0.68581645	          0.00000000	          0.00000000	          0.00000000	          0.00000000	
          1.49500000	         42.96707971	        621.55215962	         46.30218874	         -0.30986481	          0.00000000	         -0.09837307	          0.00000000	          0.00000000	          0.00000000	          0.00000000	          0.00000000	          0.00000000	          0.00000000	         -0.67004078	          0.00000000	          0.00000000	         -0.00000000	          0.00000000	
          1.50000000	         46.54088729	        631.19243556	         47.70044624	         -0.30929242	          0.00000000	         -0.09834597	         -0.00000000	          0.00000000	          0.00000000	         -0.00000000	          0.00000000	         -0.00000000	          0.00000000	         -0.64207847	          0.00000000	          0.00000000	         -0.00000000	          0.00000000	
          1.50500000	         49.91357025	        640.85866288	         49.37567561	         -0.30863862	          0.00000000	         -0.09819359	         -0.00000000	         -0.00000003	         -0.00000000	         -0.00000000	          0.00000000	         -0.00000000	          0.00000000	         -0.60719175	          0.00000000	          0.00000000	         -0.00000000	          0.00000000	
          1.51000000	         53.30303763	        650.63688614	         51.12902295	         -0.30790358	          0.00000000	         -0.09780452	         -0.00000000	         -0.00000008	         -0.00000000	         -0.00000000	          0.00000000	         -0.00000000	          0.00000000	         -0.58290454	          0.00000000	          0.00000000	          0.00000000	          0.00000000	
          1.51500000	         56.97687166	        659.91177580	         52.64371971	         -0.30721474	          0.00000000	         -0.09734748	          0.00000001	          0.00000005	         -0.00000001	          0.00000000	          0.00000000	          0.00000000	          0.00000000	         -0.56121924	          0.00000000	          0.00000000	          0.00000000	          0.00000000	
          1.52000000	         60.83159882	        668.40480723	         53.97686126	         -0.30654812	          0.00000000	         -0.09720371	          0.00000005	          0.00000089	          0.00000001	          0.00000000	          0.00000000	          0.00000000	          0.00000000	         -0.52196576	          0.00000000	          0.00000000	          0.00000000	          0.00000000	
          1.52500000	         64.70482987	        676.15419149	         55.07798110	         -0.30587476	          0.00000000	         -0.09722880	          0.00000009	          0.00000185	          0.00000010	         -0.00000000	          0.00000000	         -0.00000000	          0.00000000	         -0.50363091	          0.00000000	          0.00000000	         -0.00000000	          0.00000000	
          1.53000000	         68.60080045	        683.27041386	         55.80495143	         -0.30514681	          0.00000000	         -0.09705830	         -0.00000026	         -0.00000336	          0.00000014	         -0.00000001	          0.00000000	         -0.00000000	          0.00000000	         -0.50104695	          0.00000000	          0.00000000	         -0.00000000	          0.00000000	
